<!--?xml version="1.0" standalone="no"?-->              <svg id="sw-js-blob-svg" viewBox="0 0 100 100" xmlns="http://www.w3.org/2000/svg">                    <defs>                         <linearGradient id="sw-gradient" x1="0" x2="1" y1="1" y2="0">                            <stop id="stop1" stop-color="rgba(74.035, 255, 225.171, 1)" offset="0%"></stop>                            <stop id="stop2" stop-color="rgba(0.587, 162.221, 246.725, 1)" offset="100%"></stop>                        </linearGradient>                    </defs>                <path fill="url(#sw-gradient)" d="M14.5,-25.2C16.6,-18.5,14.5,-11.3,18.5,-4.6C22.6,2,32.9,8,35.3,14.8C37.6,21.5,32.1,29,24.9,31.9C17.7,34.8,8.8,33.1,0.8,31.9C-7.2,30.8,-14.3,30.2,-17.5,26C-20.8,21.8,-20.1,14,-21.5,7.5C-23,0.9,-26.6,-4.4,-27.2,-10.7C-27.7,-17,-25.3,-24.2,-20.2,-29.8C-15.2,-35.5,-7.6,-39.7,-0.7,-38.7C6.2,-37.8,12.5,-31.8,14.5,-25.2Z" width="100%" height="100%" transform="translate(50 50)" stroke-width="0" style="transition: all 0.3s ease 0s;" stroke="url(#sw-gradient)"></path>              </svg>