<!--?xml version="1.0" standalone="no"?-->              <svg id="sw-js-blob-svg" viewBox="0 0 100 100" xmlns="http://www.w3.org/2000/svg">                    <defs>                         <linearGradient id="sw-gradient" x1="0" x2="1" y1="1" y2="0">                            <stop id="stop1" stop-color="rgba(255, 249.922, 74.035, 1)" offset="0%"></stop>                            <stop id="stop2" stop-color="rgba(246.725, 64.712, 0.587, 1)" offset="100%"></stop>                        </linearGradient>                    </defs>                <path fill="url(#sw-gradient)" d="M17,-21.4C21,-20.5,22.6,-14.2,21.2,-9.1C19.8,-4,15.4,-0.2,16.1,7.5C16.7,15.2,22.3,26.7,20.4,32.3C18.5,37.9,9.3,37.4,0.9,36.2C-7.5,35,-15,33,-19.4,28.3C-23.7,23.5,-24.9,16,-27.2,8.8C-29.6,1.7,-33.1,-5.1,-31,-9.5C-28.8,-14,-21,-16,-14.9,-16.2C-8.7,-16.3,-4.4,-14.6,1.1,-16.1C6.5,-17.6,13,-22.2,17,-21.4Z" width="100%" height="100%" transform="translate(50 50)" stroke-width="0" style="transition: all 0.3s ease 0s;" stroke="url(#sw-gradient)"></path>              </svg>